# xmcd CD database file
#
# Track frame offsets:
#	150
#	24829
#	41564
#	58828
#	79084
#	100088
#	120054
#	137629
#	153935
#	173479
#	193209
#	208404
#	227280
#	249618
#	266370
#	282304
#	302050
#	323354
#	344955
#
# Disc length: 4797 seconds
#
# Revision: 0
# Processed by: cddbd v1.5.2PL0 Copyright (c) Steve Scherf et al.
# Submitted via: CDex 1.70beta2
#
DISCID=fe12bb13
DTITLE=ERA - Greatest Hits(Come Into My World) 1
DYEAR=2008
DGENRE=New Age
TTITLE0=Reborn
TTITLE1=The Mass
TTITLE2=Ameno
TTITLE3=Infanati
TTITLE4=Sinfoni Deo
TTITLE5=Don't Go Away
TTITLE6=Don't U
TTITLE7=Enae Volare
TTITLE8=Prayers
TTITLE9=Avemano Orchestral
TTITLE10=Cathar Rhythm
TTITLE11=Looking For Something
TTITLE12=Sentenee
TTITLE13=Don't You Forget
TTITLE14=The Champions
TTITLE15=Voxifera
TTITLE16=Mother
TTITLE17=Last Song
TTITLE18=Era
EXTD=YEAR: 2008
EXTT0=
EXTT1=
EXTT2=
EXTT3=
EXTT4=
EXTT5=
EXTT6=
EXTT7=
EXTT8=
EXTT9=
EXTT10=
EXTT11=
EXTT12=
EXTT13=
EXTT14=
EXTT15=
EXTT16=
EXTT17=
EXTT18=
PLAYORDER=
